<?xml version="1.0" standalone="no"?>
<!DOCTYPE svg PUBLIC "-//W3C//DTD SVG 20010904//EN"
 "http://www.w3.org/TR/2001/REC-SVG-20010904/DTD/svg10.dtd">
<svg version="1.0" xmlns="http://www.w3.org/2000/svg"
 width="1225.000000pt" height="1280.000000pt" viewBox="0 0 1225.000000 1280.000000"
 preserveAspectRatio="xMidYMid meet">
<metadata>
Created by potrace 1.15, written by Peter Selinger 2001-2017
</metadata>
<g transform="translate(0.000000,1280.000000) scale(0.100000,-0.100000)"
fill="#000000" stroke="none">
<path d="M6050 12789 c-272 -31 -568 -129 -804 -269 -285 -168 -556 -438 -740
-737 l-26 -42 -99 44 c-286 127 -503 176 -776 176 -653 0 -1255 -328 -1618
-881 -204 -311 -317 -693 -317 -1067 0 -89 13 -249 25 -298 4 -17 -7 -24 -83
-48 -353 -112 -667 -372 -861 -711 -176 -308 -236 -701 -157 -1024 16 -62 26
-114 25 -115 -52 -32 -178 -139 -243 -207 -326 -343 -448 -812 -331 -1270 37
-145 81 -248 163 -385 177 -294 503 -535 837 -619 156 -39 173 -40 1080 -45
l891 -6 -447 -690 c-246 -379 -448 -693 -448 -697 -1 -5 337 -8 749 -8 413 0
750 -3 750 -6 0 -3 -38 -147 -85 -319 -85 -313 -103 -391 -60 -260 13 39 24
62 24 53 1 -12 13 -19 39 -24 20 -4 40 -11 44 -17 3 -6 14 18 23 52 10 34 20
60 22 57 2 -2 -73 -291 -166 -642 -345 -1298 -471 -1777 -468 -1780 2 -2 215
360 474 804 537 920 910 1552 926 1567 5 6 -4 -15 -22 -46 -34 -62 -31 -69 27
-69 38 0 58 -15 46 -32 -18 -23 -67 -114 -56 -103 5 6 161 265 346 576 l337
567 67 -23 c93 -33 208 -55 337 -66 61 -5 493 -9 962 -9 l852 0 -38 -58 c-68
-103 -681 -1052 -681 -1055 0 -1 338 -2 750 -2 523 0 750 -3 750 -11 0 -5 -25
-102 -55 -215 -95 -349 -116 -431 -112 -435 2 -2 12 25 22 61 11 42 21 62 28
58 6 -4 30 -10 54 -13 40 -6 42 -6 49 22 3 16 8 27 11 25 5 -6 5 -5 -232 -897
-363 -1366 -394 -1484 -391 -1487 1 -1 214 361 473 805 541 927 911 1553 926
1567 5 6 -4 -15 -22 -46 l-31 -56 52 -6 c46 -4 55 -2 71 16 10 12 -1 -14 -24
-58 -23 -44 -38 -75 -32 -70 11 12 909 1524 918 1546 4 12 -64 14 -500 11
-278 -1 -505 1 -505 5 1 5 47 71 103 148 l103 140 1014 6 c876 4 1026 7 1095
21 322 65 554 186 768 405 187 190 310 422 369 696 28 133 31 410 5 527 -42
187 -121 371 -222 515 -64 91 -221 253 -307 317 -37 27 -68 55 -68 61 0 7 7
34 15 61 65 213 59 505 -16 759 -31 107 -123 305 -183 395 -35 52 -36 56 -36
150 0 385 -133 774 -372 1094 -86 114 -253 285 -373 381 -55 44 -101 81 -103
82 -2 2 1 27 7 57 13 75 -3 285 -33 436 -76 375 -258 712 -532 986 -336 335
-753 527 -1234 566 -175 15 -263 5 -473 -54 l-157 -43 -50 97 c-238 463 -678
842 -1170 1009 -276 93 -599 130 -870 100z m-1624 -8011 c16 -24 33 -48 37
-55 6 -10 -10 -13 -73 -13 l-81 0 42 55 c23 30 43 55 44 55 1 0 15 -19 31 -42z
m-789 -1330 c-3 -8 -6 -5 -6 6 -1 11 2 17 5 13 3 -3 4 -12 1 -19z m826 -183
c-3 -9 -8 -14 -10 -11 -3 3 -2 9 2 15 9 16 15 13 8 -4z m3614 -697 c-3 -8 -6
-5 -6 6 -1 11 2 17 5 13 3 -3 4 -12 1 -19z"/>
<path d="M7891 2364 c0 -11 3 -14 6 -6 3 7 2 16 -1 19 -3 4 -6 -2 -5 -13z"/>
</g>
</svg>
